<svg width="33" height="33" viewBox="0 0 33 33" fill="none" xmlns="http://www.w3.org/2000/svg">
<path d="M16.5 17.4735L9.28676 24.6867C9.15843 24.8151 9.00076 24.8838 8.81376 24.893C8.62676 24.9022 8.45993 24.8334 8.31326 24.6867C8.16659 24.5401 8.09326 24.3778 8.09326 24.2C8.09326 24.0222 8.16659 23.8599 8.31326 23.7132L15.5265 16.5L8.31326 9.28675C8.18493 9.15841 8.11618 9.00075 8.10701 8.81375C8.09784 8.62675 8.16659 8.45991 8.31326 8.31325C8.45993 8.16658 8.62218 8.09325 8.80001 8.09325C8.97784 8.09325 9.1401 8.16658 9.28676 8.31325L16.5 15.5265L23.7133 8.31325C23.8416 8.18491 23.9997 8.11616 24.1876 8.107C24.3737 8.09783 24.5401 8.16658 24.6868 8.31325C24.8334 8.45991 24.9068 8.62216 24.9068 8.8C24.9068 8.97783 24.8334 9.14008 24.6868 9.28675L17.4735 16.5L24.6868 23.7132C24.8151 23.8416 24.8838 23.9997 24.893 24.1876C24.9022 24.3737 24.8334 24.5401 24.6868 24.6867C24.5401 24.8334 24.3778 24.9067 24.2 24.9067C24.0222 24.9067 23.8599 24.8334 23.7133 24.6867L16.5 17.4735Z" fill="#F4F4F4"/>
</svg>
